<?xml version="1.0" encoding="utf-8"?>
<!-- Generator: Adobe Illustrator 16.0.3, SVG Export Plug-In . SVG Version: 6.00 Build 0)  -->
<!DOCTYPE svg PUBLIC "-//W3C//DTD SVG 1.1//EN" "http://www.w3.org/Graphics/SVG/1.1/DTD/svg11.dtd" [
	<!ENTITY ns_extend "http://ns.adobe.com/Extensibility/1.0/">
	<!ENTITY ns_ai "http://ns.adobe.com/AdobeIllustrator/10.0/">
	<!ENTITY ns_graphs "http://ns.adobe.com/Graphs/1.0/">
	<!ENTITY ns_vars "http://ns.adobe.com/Variables/1.0/">
	<!ENTITY ns_imrep "http://ns.adobe.com/ImageReplacement/1.0/">
	<!ENTITY ns_sfw "http://ns.adobe.com/SaveForWeb/1.0/">
	<!ENTITY ns_custom "http://ns.adobe.com/GenericCustomNamespace/1.0/">
	<!ENTITY ns_adobe_xpath "http://ns.adobe.com/XPath/1.0/">
]>
<svg version="1.1" id="Ebene_1" xmlns:x="&ns_extend;" xmlns:i="&ns_ai;" xmlns:graph="&ns_graphs;"
	 xmlns="http://www.w3.org/2000/svg" xmlns:xlink="http://www.w3.org/1999/xlink" x="0px" y="0px" width="106px" height="108px"
	 viewBox="0 0 106 108" enable-background="new 0 0 106 108" xml:space="preserve">
<metadata>
	<sfw  xmlns="&ns_sfw;">
		<slices></slices>
		<sliceSourceBounds  width="105.531" height="108" x="73.734" y="73.5" bottomLeftOrigin="true"></sliceSourceBounds>
	</sfw>
</metadata>
<g>
	
		<linearGradient id="SVGID_1_" gradientUnits="userSpaceOnUse" x1="10431.7344" y1="-12856.293" x2="10431.7344" y2="-16546.4883" gradientTransform="matrix(0.0284 0 0 -0.0284 -243.2611 -363.5244)">
		<stop  offset="0" style="stop-color:#FFFFFF"/>
		<stop  offset="1" style="stop-color:#999999"/>
	</linearGradient>
	<path fill="url(#SVGID_1_)" stroke="#ADADAD" stroke-miterlimit="10" d="M105.266,47.831V7.904c0-4.065-3.338-7.404-7.403-7.404
		H8.138c-4.066,0-7.404,3.338-7.404,7.404v39.927c0,2.467,0,4.935,0,7.404C0.734,84.054,24.108,107.5,53,107.5
		c28.819,0,52.266-23.374,52.266-52.266C105.266,52.766,105.266,50.298,105.266,47.831z"/>
	
		<linearGradient id="SVGID_2_" gradientUnits="userSpaceOnUse" x1="10431.75" y1="-16521.4258" x2="10431.75" y2="-12882.0078" gradientTransform="matrix(0.0284 0 0 -0.0284 -243.2611 -363.5244)">
		<stop  offset="0" style="stop-color:#808080"/>
		<stop  offset="0.1804" style="stop-color:#CCCCCC"/>
		<stop  offset="0.3608" style="stop-color:#848686"/>
		<stop  offset="0.549" style="stop-color:#FFFFFF"/>
		<stop  offset="0.7216" style="stop-color:#CCF5F5"/>
		<stop  offset="0.9216" style="stop-color:#999999"/>
		<stop  offset="1" style="stop-color:#808080"/>
	</linearGradient>
	<path fill="url(#SVGID_2_)" d="M104.547,47.915V8.539c0-4.011-3.292-7.303-7.302-7.303H8.755c-4.01,0-7.302,3.292-7.302,7.303
		v39.376c0,2.434,0,4.869,0,7.303c0,28.422,23.052,51.546,51.546,51.546c28.423,0,51.547-23.053,51.547-51.546
		C104.547,52.784,104.547,50.349,104.547,47.915z"/>
	
		<linearGradient id="SVGID_3_" gradientUnits="userSpaceOnUse" x1="9498.1504" y1="-13674.1328" x2="11369.5957" y2="-15728.1367" gradientTransform="matrix(0.0284 0 0 -0.0284 -243.2611 -363.5244)">
		<stop  offset="0" style="stop-color:#7F7F81"/>
		<stop  offset="1" style="stop-color:#F9F9FB"/>
	</linearGradient>
	<path fill="url(#SVGID_3_)" d="M53.072,10.329c24.127,0,43.672,19.545,43.672,43.669c0,24.128-19.545,43.673-43.672,43.673
		S9.399,78.127,9.399,53.999C9.399,29.875,28.945,10.329,53.072,10.329z"/>
	<radialGradient id="SVGID_4_" cx="53.1436" cy="54.2148" r="42.8843" gradientUnits="userSpaceOnUse">
		<stop  offset="0" style="stop-color:#E6E6E6"/>
		<stop  offset="0.3958" style="stop-color:#E4E4E4"/>
		<stop  offset="0.584" style="stop-color:#DCDCDC"/>
		<stop  offset="0.7282" style="stop-color:#CFCFCF"/>
		<stop  offset="0.8494" style="stop-color:#BDBDBD"/>
		<stop  offset="0.9261" style="stop-color:#ADADAD"/>
		<stop  offset="1" style="stop-color:#1C1C1C"/>
	</radialGradient>
	<path fill="url(#SVGID_4_)" d="M53.144,11.33c23.698,0,42.884,19.188,42.884,42.883c0,23.699-19.186,42.887-42.884,42.887
		S10.26,77.912,10.26,54.213C10.26,30.518,29.445,11.33,53.144,11.33z"/>
	
		<linearGradient id="SVGID_5_" gradientUnits="userSpaceOnUse" x1="9039.2461" y1="-13026.9639" x2="9051.3438" y2="-13516.4932" gradientTransform="matrix(0.0284 0 0 -0.0284 -243.2611 -363.5244)">
		<stop  offset="0" style="stop-color:#333333"/>
		<stop  offset="1" style="stop-color:#FEFEFE"/>
	</linearGradient>
	<path fill="url(#SVGID_5_)" d="M13.624,3.67c5.371,0,9.667,4.368,9.667,9.665c0,5.368-4.367,9.665-9.667,9.665
		c-5.369,0-9.665-4.368-9.665-9.665C3.959,7.966,8.327,3.67,13.624,3.67z"/>
	
		<linearGradient id="SVGID_6_" gradientUnits="userSpaceOnUse" x1="11813.0586" y1="-12958.4756" x2="11825.1563" y2="-13448.0049" gradientTransform="matrix(0.0284 0 0 -0.0284 -243.2611 -363.5244)">
		<stop  offset="0" style="stop-color:#333333"/>
		<stop  offset="1" style="stop-color:#FEFEFE"/>
	</linearGradient>
	<path fill="url(#SVGID_6_)" d="M92.448,3.67c5.369,0,9.664,4.368,9.664,9.665c0,5.368-4.366,9.665-9.664,9.665
		c-5.37,0-9.663-4.368-9.663-9.665C82.785,7.966,87.149,3.67,92.448,3.67z"/>
	
		<linearGradient id="SVGID_7_" gradientUnits="userSpaceOnUse" x1="9629.2695" y1="-13892.2402" x2="11238.5635" y2="-15510.1582" gradientTransform="matrix(0.0284 0 0 -0.0284 -243.2611 -363.5244)">
		<stop  offset="0" style="stop-color:#59595B"/>
		<stop  offset="1" style="stop-color:#B7B8BC"/>
	</linearGradient>
	<path fill="url(#SVGID_7_)" d="M53.072,15.84c21.12,0,38.158,17.111,38.158,38.159c0,21.121-17.109,38.161-38.158,38.161
		c-21.119,0-38.159-17.111-38.159-38.161C14.913,32.88,32.024,15.84,53.072,15.84z"/>
	
		<linearGradient id="SVGID_8_" gradientUnits="userSpaceOnUse" x1="11050.3828" y1="-15517.792" x2="9815.1592" y2="-13886.3867" gradientTransform="matrix(0.0284 0 0 -0.0284 -243.2611 -363.5244)">
		<stop  offset="0" style="stop-color:#4D4D4D"/>
		<stop  offset="1" style="stop-color:#808080"/>
	</linearGradient>
	<path fill="url(#SVGID_8_)" d="M53.072,18.274c19.76,0,35.796,16.039,35.796,35.796c0,19.76-16.036,35.799-35.796,35.799
		S17.276,73.83,17.276,54.07C17.276,34.313,33.313,18.274,53.072,18.274z"/>
	
		<linearGradient id="SVGID_9_" gradientUnits="userSpaceOnUse" x1="10434.2656" y1="-15790.5303" x2="10434.2656" y2="-13612.499" gradientTransform="matrix(0.0284 0 0 -0.0284 -243.2611 -363.5244)">
		<stop  offset="0" style="stop-color:#808080"/>
		<stop  offset="0.1804" style="stop-color:#CCCCCC"/>
		<stop  offset="0.3686" style="stop-color:#848686"/>
		<stop  offset="0.5804" style="stop-color:#FFFFFF"/>
		<stop  offset="0.749" style="stop-color:#DAF5F5"/>
		<stop  offset="0.8902" style="stop-color:#999999"/>
		<stop  offset="1" style="stop-color:#808080"/>
	</linearGradient>
	<path fill="url(#SVGID_9_)" d="M53.072,23.071C70.111,23.071,84,36.89,84,53.999c0,17.04-13.817,30.928-30.928,30.928
		c-17.04,0-30.929-13.816-30.929-30.928C22.144,36.961,35.96,23.071,53.072,23.071z"/>
	
		<linearGradient id="SVGID_10_" gradientUnits="userSpaceOnUse" x1="11077.082" y1="-15460.0313" x2="9793.9932" y2="-13930.9541" gradientTransform="matrix(0.0284 0 0 -0.0284 -243.2611 -363.5244)">
		<stop  offset="0" style="stop-color:#999999"/>
		<stop  offset="0.7686" style="stop-color:#B2B2B2"/>
		<stop  offset="1" style="stop-color:#FEFEFE"/>
	</linearGradient>
	<path fill="url(#SVGID_10_)" d="M53.072,25.865c15.464,0,27.922,12.527,27.922,27.919c0,15.464-12.53,27.922-27.922,27.922
		c-15.465,0-27.92-12.529-27.92-27.922C25.152,38.32,37.679,25.865,53.072,25.865z M53.072,27.008
		c14.82,0,26.847,12.029,26.847,26.847c0,14.82-12.026,26.847-26.847,26.847S26.225,68.676,26.225,53.855
		C26.225,39.038,38.252,27.008,53.072,27.008z"/>
	<radialGradient id="SVGID_11_" cx="32.248" cy="27.9746" r="24.8629" gradientUnits="userSpaceOnUse">
		<stop  offset="0" style="stop-color:#FFFFFF"/>
		<stop  offset="0.653" style="stop-color:#999999"/>
		<stop  offset="1" style="stop-color:#666666;stop-opacity:0.7"/>
	</radialGradient>
	<path fill="url(#SVGID_11_)" d="M53.072,26.768c15.082,0,27.233,12.218,27.233,27.231c0,15.082-12.221,27.234-27.233,27.234
		c-15.082,0-27.231-12.222-27.231-27.234C25.841,38.917,38.059,26.768,53.072,26.768z"/>
	<radialGradient id="SVGID_12_" cx="13.8389" cy="13.4063" r="8.0903" gradientUnits="userSpaceOnUse">
		<stop  offset="0" style="stop-color:#E6E6E6"/>
		<stop  offset="0.4" style="stop-color:#ADADAD"/>
		<stop  offset="1" style="stop-color:#666666"/>
	</radialGradient>
	<path fill="url(#SVGID_12_)" d="M13.838,5.315c4.439,0,8.091,3.652,8.091,8.091c0,4.439-3.652,8.091-8.091,8.091
		c-4.438,0-8.088-3.652-8.088-8.091C5.75,8.968,9.399,5.315,13.838,5.315z"/>
	<radialGradient id="SVGID_13_" cx="92.6631" cy="13.4063" r="8.0908" gradientUnits="userSpaceOnUse">
		<stop  offset="0" style="stop-color:#FFFFFF"/>
		<stop  offset="0.0712" style="stop-color:#FEF6F7"/>
		<stop  offset="0.1872" style="stop-color:#FBDEE0"/>
		<stop  offset="0.3328" style="stop-color:#F7B6BB"/>
		<stop  offset="0.4335" style="stop-color:#F4979D"/>
		<stop  offset="0.5722" style="stop-color:#F0767E"/>
		<stop  offset="0.8757" style="stop-color:#E72431"/>
		<stop  offset="1" style="stop-color:#E3000F"/>
	</radialGradient>
	<path fill="url(#SVGID_13_)" d="M92.663,5.315c4.438,0,8.091,3.652,8.091,8.091c0,4.439-3.652,8.091-8.091,8.091
		s-8.091-3.652-8.091-8.091C84.572,8.968,88.225,5.315,92.663,5.315z"/>
</g>
</svg>
